<mxfile host="app.diagrams.net" agent="Mozilla/5.0 (Windows NT 10.0; Win64; x64) AppleWebKit/537.36 (KHTML, like Gecko) Chrome/132.0.0.0 Safari/537.36 OPR/117.0.0.0" version="26.1.0">
  <diagram name="Page-1" id="8qtH37SdvV1gMV6_LNMO">
    <mxGraphModel dx="2220" dy="1932" grid="1" gridSize="10" guides="1" tooltips="1" connect="1" arrows="1" fold="1" page="1" pageScale="1" pageWidth="827" pageHeight="1169" math="0" shadow="0">
      <root>
        <mxCell id="0" />
        <mxCell id="1" parent="0" />
        <mxCell id="FliR6MDcIxYNhLgZJAhP-52" style="edgeStyle=orthogonalEdgeStyle;rounded=0;orthogonalLoop=1;jettySize=auto;html=1;exitX=0.25;exitY=0.1;exitDx=0;exitDy=0;exitPerimeter=0;entryX=0;entryY=0.5;entryDx=0;entryDy=0;" edge="1" parent="1" source="FliR6MDcIxYNhLgZJAhP-3" target="FliR6MDcIxYNhLgZJAhP-43">
          <mxGeometry relative="1" as="geometry">
            <Array as="points">
              <mxPoint x="-140" y="-316" />
              <mxPoint x="-140" y="-540" />
            </Array>
          </mxGeometry>
        </mxCell>
        <mxCell id="FliR6MDcIxYNhLgZJAhP-53" style="edgeStyle=orthogonalEdgeStyle;rounded=0;orthogonalLoop=1;jettySize=auto;html=1;exitX=0.5;exitY=0;exitDx=0;exitDy=0;exitPerimeter=0;entryX=0;entryY=0.5;entryDx=0;entryDy=0;" edge="1" parent="1" source="FliR6MDcIxYNhLgZJAhP-3" target="FliR6MDcIxYNhLgZJAhP-15">
          <mxGeometry relative="1" as="geometry" />
        </mxCell>
        <mxCell id="FliR6MDcIxYNhLgZJAhP-70" style="edgeStyle=orthogonalEdgeStyle;rounded=0;orthogonalLoop=1;jettySize=auto;html=1;exitX=1;exitY=0.3333333333333333;exitDx=0;exitDy=0;exitPerimeter=0;entryX=1;entryY=0.5;entryDx=0;entryDy=0;" edge="1" parent="1" source="FliR6MDcIxYNhLgZJAhP-3" target="FliR6MDcIxYNhLgZJAhP-17">
          <mxGeometry relative="1" as="geometry" />
        </mxCell>
        <mxCell id="FliR6MDcIxYNhLgZJAhP-71" style="edgeStyle=orthogonalEdgeStyle;rounded=0;orthogonalLoop=1;jettySize=auto;html=1;exitX=1;exitY=1;exitDx=0;exitDy=0;exitPerimeter=0;entryX=0;entryY=0.5;entryDx=0;entryDy=0;" edge="1" parent="1" source="FliR6MDcIxYNhLgZJAhP-3" target="FliR6MDcIxYNhLgZJAhP-19">
          <mxGeometry relative="1" as="geometry" />
        </mxCell>
        <mxCell id="FliR6MDcIxYNhLgZJAhP-72" style="edgeStyle=orthogonalEdgeStyle;rounded=0;orthogonalLoop=1;jettySize=auto;html=1;exitX=0;exitY=1;exitDx=0;exitDy=0;exitPerimeter=0;entryX=0;entryY=0.5;entryDx=0;entryDy=0;" edge="1" parent="1" source="FliR6MDcIxYNhLgZJAhP-3" target="FliR6MDcIxYNhLgZJAhP-20">
          <mxGeometry relative="1" as="geometry" />
        </mxCell>
        <mxCell id="FliR6MDcIxYNhLgZJAhP-3" value="Cliente" style="shape=umlActor;verticalLabelPosition=bottom;verticalAlign=top;html=1;outlineConnect=0;shadow=0;" vertex="1" parent="1">
          <mxGeometry x="-160" y="-330" width="70" height="140" as="geometry" />
        </mxCell>
        <mxCell id="FliR6MDcIxYNhLgZJAhP-58" style="edgeStyle=orthogonalEdgeStyle;rounded=0;orthogonalLoop=1;jettySize=auto;html=1;exitX=0.75;exitY=0.1;exitDx=0;exitDy=0;exitPerimeter=0;entryX=1;entryY=0.5;entryDx=0;entryDy=0;" edge="1" parent="1" source="FliR6MDcIxYNhLgZJAhP-5" target="FliR6MDcIxYNhLgZJAhP-22">
          <mxGeometry relative="1" as="geometry">
            <Array as="points">
              <mxPoint x="873" y="-500" />
            </Array>
          </mxGeometry>
        </mxCell>
        <mxCell id="FliR6MDcIxYNhLgZJAhP-60" style="edgeStyle=orthogonalEdgeStyle;rounded=0;orthogonalLoop=1;jettySize=auto;html=1;exitX=0.5;exitY=0;exitDx=0;exitDy=0;exitPerimeter=0;entryX=1;entryY=0.5;entryDx=0;entryDy=0;" edge="1" parent="1" source="FliR6MDcIxYNhLgZJAhP-5" target="FliR6MDcIxYNhLgZJAhP-23">
          <mxGeometry relative="1" as="geometry" />
        </mxCell>
        <mxCell id="FliR6MDcIxYNhLgZJAhP-61" style="edgeStyle=orthogonalEdgeStyle;rounded=0;orthogonalLoop=1;jettySize=auto;html=1;exitX=0.25;exitY=0.1;exitDx=0;exitDy=0;exitPerimeter=0;entryX=1;entryY=0;entryDx=0;entryDy=0;" edge="1" parent="1" source="FliR6MDcIxYNhLgZJAhP-5" target="FliR6MDcIxYNhLgZJAhP-24">
          <mxGeometry relative="1" as="geometry" />
        </mxCell>
        <mxCell id="FliR6MDcIxYNhLgZJAhP-62" style="edgeStyle=orthogonalEdgeStyle;rounded=0;orthogonalLoop=1;jettySize=auto;html=1;exitX=0;exitY=1;exitDx=0;exitDy=0;exitPerimeter=0;entryX=1;entryY=0.5;entryDx=0;entryDy=0;" edge="1" parent="1" source="FliR6MDcIxYNhLgZJAhP-5" target="FliR6MDcIxYNhLgZJAhP-21">
          <mxGeometry relative="1" as="geometry" />
        </mxCell>
        <mxCell id="FliR6MDcIxYNhLgZJAhP-5" value="ADM" style="shape=umlActor;verticalLabelPosition=bottom;verticalAlign=top;html=1;outlineConnect=0;" vertex="1" parent="1">
          <mxGeometry x="820" y="-330" width="70" height="140" as="geometry" />
        </mxCell>
        <mxCell id="FliR6MDcIxYNhLgZJAhP-11" value="Plataforma de Avaliação" style="swimlane;startSize=0;" vertex="1" parent="1">
          <mxGeometry x="-10" y="-660" width="780" height="950" as="geometry" />
        </mxCell>
        <mxCell id="FliR6MDcIxYNhLgZJAhP-15" value="Cadastrar Objetos de aprendizagem" style="ellipse;whiteSpace=wrap;html=1;" vertex="1" parent="FliR6MDcIxYNhLgZJAhP-11">
          <mxGeometry x="20" y="150" width="120" height="80" as="geometry" />
        </mxCell>
        <mxCell id="FliR6MDcIxYNhLgZJAhP-65" value="&amp;lt;&amp;lt;include&amp;gt;&amp;gt;" style="edgeStyle=orthogonalEdgeStyle;rounded=0;orthogonalLoop=1;jettySize=auto;html=1;exitX=0.5;exitY=0;exitDx=0;exitDy=0;entryX=0.5;entryY=0;entryDx=0;entryDy=0;" edge="1" parent="FliR6MDcIxYNhLgZJAhP-11" source="FliR6MDcIxYNhLgZJAhP-17" target="FliR6MDcIxYNhLgZJAhP-28">
          <mxGeometry relative="1" as="geometry" />
        </mxCell>
        <mxCell id="FliR6MDcIxYNhLgZJAhP-17" value="Avaliar Objetos de aprendizagem" style="ellipse;whiteSpace=wrap;html=1;direction=west;" vertex="1" parent="FliR6MDcIxYNhLgZJAhP-11">
          <mxGeometry x="20" y="270" width="120" height="80" as="geometry" />
        </mxCell>
        <mxCell id="FliR6MDcIxYNhLgZJAhP-19" value="Visualizar Relatórios" style="ellipse;whiteSpace=wrap;html=1;" vertex="1" parent="FliR6MDcIxYNhLgZJAhP-11">
          <mxGeometry x="20" y="730" width="120" height="80" as="geometry" />
        </mxCell>
        <mxCell id="FliR6MDcIxYNhLgZJAhP-20" value="Consultar e Compartilhar avaliações" style="ellipse;whiteSpace=wrap;html=1;" vertex="1" parent="FliR6MDcIxYNhLgZJAhP-11">
          <mxGeometry x="20" y="840" width="120" height="80" as="geometry" />
        </mxCell>
        <mxCell id="FliR6MDcIxYNhLgZJAhP-24" value="Gerenciar Usuários e Acessos" style="ellipse;whiteSpace=wrap;html=1;" vertex="1" parent="FliR6MDcIxYNhLgZJAhP-11">
          <mxGeometry x="620" y="340" width="120" height="80" as="geometry" />
        </mxCell>
        <mxCell id="FliR6MDcIxYNhLgZJAhP-23" value="Definir Critérios de Avaliação" style="ellipse;whiteSpace=wrap;html=1;" vertex="1" parent="FliR6MDcIxYNhLgZJAhP-11">
          <mxGeometry x="620" y="230" width="120" height="80" as="geometry" />
        </mxCell>
        <mxCell id="FliR6MDcIxYNhLgZJAhP-22" value="Configurar Modelos de Avaliação" style="ellipse;whiteSpace=wrap;html=1;" vertex="1" parent="FliR6MDcIxYNhLgZJAhP-11">
          <mxGeometry x="620" y="110" width="120" height="80" as="geometry" />
        </mxCell>
        <mxCell id="FliR6MDcIxYNhLgZJAhP-21" value="&amp;nbsp;Acessar Funcionalidades de usuário" style="ellipse;whiteSpace=wrap;html=1;" vertex="1" parent="FliR6MDcIxYNhLgZJAhP-11">
          <mxGeometry x="620" y="450" width="120" height="80" as="geometry" />
        </mxCell>
        <mxCell id="FliR6MDcIxYNhLgZJAhP-69" value="&amp;lt;&amp;lt;include&amp;gt;&amp;gt;" style="edgeStyle=orthogonalEdgeStyle;rounded=0;orthogonalLoop=1;jettySize=auto;html=1;exitX=0.5;exitY=1;exitDx=0;exitDy=0;entryX=0.5;entryY=0;entryDx=0;entryDy=0;" edge="1" parent="FliR6MDcIxYNhLgZJAhP-11" source="FliR6MDcIxYNhLgZJAhP-27" target="FliR6MDcIxYNhLgZJAhP-29">
          <mxGeometry relative="1" as="geometry" />
        </mxCell>
        <mxCell id="FliR6MDcIxYNhLgZJAhP-27" value="Calcular Nota Final" style="ellipse;whiteSpace=wrap;html=1;" vertex="1" parent="FliR6MDcIxYNhLgZJAhP-11">
          <mxGeometry x="20" y="500" width="120" height="80" as="geometry" />
        </mxCell>
        <mxCell id="FliR6MDcIxYNhLgZJAhP-68" value="&amp;lt;&amp;lt;include&amp;gt;&amp;gt;" style="edgeStyle=orthogonalEdgeStyle;rounded=0;orthogonalLoop=1;jettySize=auto;html=1;exitX=0.5;exitY=1;exitDx=0;exitDy=0;entryX=0.5;entryY=0;entryDx=0;entryDy=0;" edge="1" parent="FliR6MDcIxYNhLgZJAhP-11" source="FliR6MDcIxYNhLgZJAhP-28" target="FliR6MDcIxYNhLgZJAhP-27">
          <mxGeometry relative="1" as="geometry" />
        </mxCell>
        <mxCell id="FliR6MDcIxYNhLgZJAhP-28" value="Gerar Relatórios de Avaliação" style="ellipse;whiteSpace=wrap;html=1;" vertex="1" parent="FliR6MDcIxYNhLgZJAhP-11">
          <mxGeometry x="20" y="390" width="120" height="80" as="geometry" />
        </mxCell>
        <mxCell id="FliR6MDcIxYNhLgZJAhP-29" value="Exibir Nota Final ao Público" style="ellipse;whiteSpace=wrap;html=1;" vertex="1" parent="FliR6MDcIxYNhLgZJAhP-11">
          <mxGeometry x="20" y="610" width="120" height="80" as="geometry" />
        </mxCell>
        <mxCell id="FliR6MDcIxYNhLgZJAhP-43" value="Fazer login" style="ellipse;whiteSpace=wrap;html=1;" vertex="1" parent="FliR6MDcIxYNhLgZJAhP-11">
          <mxGeometry x="20" y="10" width="120" height="80" as="geometry" />
        </mxCell>
        <mxCell id="FliR6MDcIxYNhLgZJAhP-44" value="Verificar senha" style="ellipse;whiteSpace=wrap;html=1;" vertex="1" parent="FliR6MDcIxYNhLgZJAhP-11">
          <mxGeometry x="210" y="20" width="120" height="80" as="geometry" />
        </mxCell>
        <mxCell id="FliR6MDcIxYNhLgZJAhP-45" value="Exibir erro de login" style="ellipse;whiteSpace=wrap;html=1;" vertex="1" parent="FliR6MDcIxYNhLgZJAhP-11">
          <mxGeometry x="230" y="120" width="120" height="80" as="geometry" />
        </mxCell>
        <mxCell id="FliR6MDcIxYNhLgZJAhP-63" value="&amp;lt;&amp;lt;include&amp;gt;&amp;gt;" style="endArrow=none;dashed=1;html=1;rounded=0;entryX=1;entryY=0;entryDx=0;entryDy=0;exitX=0;exitY=0.5;exitDx=0;exitDy=0;" edge="1" parent="FliR6MDcIxYNhLgZJAhP-11" source="FliR6MDcIxYNhLgZJAhP-44" target="FliR6MDcIxYNhLgZJAhP-43">
          <mxGeometry width="50" height="50" relative="1" as="geometry">
            <mxPoint x="400" y="380" as="sourcePoint" />
            <mxPoint x="450" y="330" as="targetPoint" />
          </mxGeometry>
        </mxCell>
        <mxCell id="FliR6MDcIxYNhLgZJAhP-64" value="&amp;lt;&amp;lt;include&lt;span style=&quot;background-color: light-dark(#ffffff, var(--ge-dark-color, #121212)); color: light-dark(rgb(0, 0, 0), rgb(255, 255, 255));&quot;&gt;&amp;gt;&amp;gt;&lt;/span&gt;" style="endArrow=none;dashed=1;html=1;rounded=0;entryX=1;entryY=1;entryDx=0;entryDy=0;exitX=0;exitY=0.5;exitDx=0;exitDy=0;" edge="1" parent="FliR6MDcIxYNhLgZJAhP-11" source="FliR6MDcIxYNhLgZJAhP-45" target="FliR6MDcIxYNhLgZJAhP-43">
          <mxGeometry width="50" height="50" relative="1" as="geometry">
            <mxPoint x="400" y="380" as="sourcePoint" />
            <mxPoint x="450" y="330" as="targetPoint" />
          </mxGeometry>
        </mxCell>
      </root>
    </mxGraphModel>
  </diagram>
</mxfile>
